<?xml version="1.0" encoding="utf-8"?>
<!-- Generator: Adobe Illustrator 14.0.0, SVG Export Plug-In . SVG Version: 6.00 Build 43363)  -->
<!DOCTYPE svg PUBLIC "-//W3C//DTD SVG 1.1//EN" "http://www.w3.org/Graphics/SVG/1.1/DTD/svg11.dtd">
<svg version="1.1" id="Layer_1" xmlns="http://www.w3.org/2000/svg" xmlns:xlink="http://www.w3.org/1999/xlink" x="0px" y="0px"
	 width="841.89px" height="327.651px" viewBox="0 0 841.89 327.651" enable-background="new 0 0 841.89 327.651"
	 xml:space="preserve">
<g>
	<g>
		<g>
			<path d="M347.544,146.252c-2.82-1.164-4.994-2.728-6.518-4.669c-1.524-1.951-2.291-4.12-2.291-6.522v-1.166
				c0-0.649,0.331-0.976,0.976-0.976h4.674c0.646,0,0.971,0.326,0.971,0.976v0.777c0,2.14,1.116,4.009,3.358,5.597
				c2.237,1.586,5.043,2.382,8.416,2.382c3.374,0,6.096-0.761,8.173-2.285c2.078-1.525,3.116-3.456,3.116-5.79
				c0-1.621-0.534-2.952-1.607-3.99c-1.072-1.039-2.334-1.849-3.795-2.432c-1.461-0.587-3.713-1.329-6.761-2.237
				c-3.636-1.039-6.62-2.077-8.955-3.115c-2.334-1.04-4.295-2.48-5.887-4.331c-1.592-1.848-2.383-4.202-2.383-7.056
				c0-4.149,1.621-7.455,4.868-9.921c3.242-2.466,7.523-3.699,12.842-3.699c3.563,0,6.727,0.583,9.483,1.748
				c2.757,1.169,4.883,2.775,6.378,4.819c1.49,2.043,2.237,4.329,2.237,6.857v0.292c0,0.651-0.325,0.976-0.975,0.976h-4.572
				c-0.65,0-0.971-0.324-0.971-0.976v-0.292c0-2.203-1.058-4.052-3.165-5.542c-2.106-1.495-4.951-2.243-8.513-2.243
				c-3.31,0-5.97,0.67-7.979,2.001c-2.009,1.33-3.019,3.159-3.019,5.493c0,2.204,0.971,3.893,2.922,5.058
				c1.941,1.175,4.96,2.34,9.047,3.504c3.762,1.107,6.814,2.146,9.149,3.116c2.334,0.971,4.344,2.383,6.033,4.233
				c1.684,1.848,2.528,4.265,2.528,7.25c0,4.218-1.655,7.591-4.965,10.12c-3.306,2.528-7.688,3.79-13.134,3.79
				C353.597,147.999,350.364,147.417,347.544,146.252z"/>
			<path d="M394.444,144.646c-3.339-2.432-5.63-5.723-6.858-9.877c-0.844-2.854-1.266-6.872-1.266-12.065
				c0-4.67,0.422-8.631,1.266-11.872c1.17-4.019,3.437-7.251,6.81-9.678c3.373-2.436,7.396-3.649,12.065-3.649
				c4.737,0,8.838,1.199,12.309,3.596c3.471,2.402,5.727,5.388,6.767,8.955c0.32,1.164,0.515,2.141,0.581,2.918v0.198
				c0,0.45-0.29,0.742-0.873,0.873l-4.868,0.68h-0.194c-0.452,0-0.743-0.292-0.878-0.874l-0.292-1.461
				c-0.582-2.466-2.009-4.558-4.281-6.275s-5.028-2.582-8.271-2.582c-3.242,0-5.95,0.864-8.125,2.582s-3.582,4.005-4.232,6.859
				c-0.582,2.469-0.874,5.741-0.874,9.828c0,4.279,0.292,7.59,0.874,9.924c0.65,2.917,2.058,5.238,4.232,6.956
				c2.174,1.723,4.883,2.583,8.125,2.583c3.18,0,5.921-0.826,8.222-2.487c2.3-1.649,3.747-3.775,4.329-6.367v-0.393l0.097-0.389
				c0.068-0.646,0.456-0.907,1.17-0.78l4.77,0.78c0.646,0.131,0.937,0.491,0.874,1.073l-0.388,1.94
				c-0.972,3.768-3.213,6.814-6.718,9.15c-3.504,2.334-7.62,3.504-12.357,3.504C401.792,148.296,397.783,147.076,394.444,144.646z"
				/>
			<path d="M439.257,87.768c-1.039-1.034-1.559-2.331-1.559-3.894c0-1.621,0.52-2.932,1.559-3.94c1.034-1,2.334-1.505,3.888-1.505
				c1.563,0,2.854,0.505,3.893,1.505c1.038,1.009,1.563,2.319,1.563,3.94c0,1.563-0.524,2.859-1.563,3.894
				c-1.039,1.038-2.33,1.563-3.893,1.563C441.591,89.33,440.291,88.806,439.257,87.768z M439.45,146.446V99.154
				c0-0.646,0.326-0.972,0.976-0.972h4.961c0.649,0,0.971,0.325,0.971,0.972v47.292c0,0.65-0.321,0.971-0.971,0.971h-4.961
				C439.776,147.417,439.45,147.097,439.45,146.446z"/>
			<path d="M501.435,121.441v3.11c0,0.651-0.329,0.977-0.976,0.977h-31.427c-0.261,0-0.393,0.126-0.393,0.388
				c0.132,3.566,0.325,5.872,0.587,6.906c0.709,2.917,2.232,5.222,4.572,6.906c2.335,1.689,5.32,2.535,8.95,2.535
				c2.728,0,5.125-0.618,7.203-1.851c2.076-1.232,3.698-2.984,4.862-5.256c0.389-0.582,0.846-0.708,1.364-0.389l3.796,2.238
				c0.519,0.324,0.646,0.781,0.388,1.363c-1.626,3.116-4.053,5.563-7.295,7.348c-3.247,1.787-6.979,2.676-11.192,2.676
				c-4.61-0.064-8.464-1.17-11.58-3.306c-3.115-2.146-5.354-5.126-6.717-8.956c-1.166-3.115-1.748-7.59-1.748-13.429
				c0-2.728,0.049-4.946,0.146-6.669c0.098-1.718,0.34-3.257,0.729-4.62c1.102-4.213,3.324-7.592,6.669-10.116
				c3.339-2.532,7.377-3.794,12.113-3.794c5.902,0,10.445,1.489,13.62,4.475c3.179,2.98,5.158,7.202,5.939,12.648
				C501.299,116.441,501.435,118.714,501.435,121.441z M473.556,106.017c-2.11,1.65-3.489,3.873-4.135,6.664
				c-0.389,1.363-0.649,3.567-0.781,6.614c0,0.263,0.132,0.389,0.393,0.389h25.2c0.258,0,0.388-0.126,0.388-0.389
				c-0.13-2.916-0.324-4.989-0.582-6.227c-0.718-2.916-2.155-5.237-4.329-6.955s-4.917-2.582-8.223-2.582
				C478.303,103.531,475.662,104.361,473.556,106.017z"/>
			<path d="M547.995,102.172c3.082,3.049,4.62,7.136,4.62,12.26v32.111c0,0.651-0.325,0.971-0.976,0.971h-4.96
				c-0.65,0-0.971-0.319-0.971-0.971v-30.751c0-3.563-1.088-6.484-3.262-8.757c-2.175-2.271-4.979-3.407-8.416-3.407
				c-3.572,0-6.455,1.107-8.658,3.311c-2.208,2.203-3.311,5.096-3.311,8.659v30.945c0,0.651-0.325,0.971-0.971,0.971h-4.966
				c-0.649,0-0.975-0.319-0.975-0.971V99.251c0-0.646,0.325-0.971,0.975-0.971h4.966c0.646,0,0.971,0.325,0.971,0.971v4.183
				c0,0.137,0.049,0.233,0.146,0.292c0.097,0.067,0.175,0.038,0.242-0.098c2.854-4.019,7.231-6.027,13.134-6.027
				C540.777,97.601,544.912,99.125,547.995,102.172z"/>
			<path d="M573.485,144.646c-3.345-2.432-5.625-5.723-6.857-9.877c-0.845-2.854-1.267-6.872-1.267-12.065
				c0-4.67,0.422-8.631,1.267-11.872c1.164-4.019,3.437-7.251,6.809-9.678c3.374-2.436,7.397-3.649,12.066-3.649
				c4.731,0,8.839,1.199,12.313,3.596c3.466,2.402,5.722,5.388,6.761,8.955c0.325,1.164,0.52,2.141,0.583,2.918v0.198
				c0,0.45-0.291,0.742-0.879,0.873l-4.863,0.68h-0.194c-0.456,0-0.747-0.292-0.873-0.874l-0.292-1.461
				c-0.587-2.466-2.014-4.558-4.281-6.275c-2.271-1.718-5.027-2.582-8.274-2.582s-5.951,0.864-8.125,2.582s-3.586,4.005-4.231,6.859
				c-0.589,2.469-0.879,5.741-0.879,9.828c0,4.279,0.29,7.59,0.879,9.924c0.646,2.917,2.058,5.238,4.231,6.956
				c2.174,1.723,4.878,2.583,8.125,2.583c3.179,0,5.916-0.826,8.227-2.487c2.301-1.649,3.742-3.775,4.329-6.367v-0.393l0.098-0.389
				c0.058-0.646,0.451-0.907,1.164-0.78l4.767,0.78c0.65,0.131,0.941,0.491,0.879,1.073l-0.389,1.94
				c-0.976,3.768-3.213,6.814-6.712,9.15c-3.505,2.334-7.631,3.504-12.362,3.504C580.834,148.296,576.829,147.076,573.485,144.646z"
				/>
			<path d="M655.369,121.441v3.11c0,0.651-0.32,0.977-0.971,0.977h-31.432c-0.262,0-0.388,0.126-0.388,0.388
				c0.126,3.566,0.324,5.872,0.582,6.906c0.718,2.917,2.243,5.222,4.572,6.906c2.34,1.689,5.319,2.535,8.955,2.535
				c2.723,0,5.125-0.618,7.202-1.851c2.072-1.232,3.693-2.984,4.863-5.256c0.394-0.582,0.84-0.708,1.364-0.389l3.796,2.238
				c0.514,0.324,0.645,0.781,0.387,1.363c-1.62,3.116-4.057,5.563-7.299,7.348c-3.242,1.787-6.97,2.676-11.192,2.676
				c-4.602-0.064-8.464-1.17-11.575-3.306c-3.111-2.146-5.354-5.126-6.713-8.956c-1.17-3.115-1.757-7.59-1.757-13.429
				c0-2.728,0.049-4.946,0.146-6.669c0.102-1.718,0.344-3.257,0.731-4.62c1.103-4.213,3.325-7.592,6.664-10.116
				c3.34-2.532,7.378-3.794,12.114-3.794c5.902,0,10.445,1.489,13.629,4.475c3.175,2.98,5.154,7.202,5.932,12.648
				C655.243,116.441,655.369,118.714,655.369,121.441z M627.49,106.017c-2.106,1.65-3.484,3.873-4.135,6.664
				c-0.389,1.363-0.65,3.567-0.776,6.614c0,0.263,0.126,0.389,0.388,0.389h25.204c0.258,0,0.389-0.126,0.389-0.389
				c-0.131-2.916-0.325-4.989-0.582-6.227c-0.714-2.916-2.159-5.237-4.334-6.955s-4.912-2.582-8.223-2.582
				C632.247,103.531,629.598,104.361,627.49,106.017z"/>
			<path fill="#458CAD" d="M346.142,172.379c-1.495-1.494-2.242-3.402-2.242-5.722c0-2.389,0.747-4.306,2.242-5.777
				c1.495-1.46,3.402-2.192,5.727-2.192c2.32,0,4.228,0.732,5.727,2.192c1.49,1.472,2.238,3.389,2.238,5.777
				c0,2.256-0.748,4.149-2.238,5.679c-1.5,1.523-3.407,2.285-5.727,2.285C349.544,174.621,347.636,173.874,346.142,172.379z
				 M344.491,225.869c-0.208-0.219-0.32-0.476-0.32-0.781v-45.152c0-0.306,0.112-0.563,0.32-0.781
				c0.218-0.209,0.476-0.32,0.777-0.32h13.012c0.301,0,0.563,0.111,0.776,0.32c0.208,0.219,0.32,0.476,0.32,0.781v45.152
				c0,0.306-0.112,0.563-0.32,0.781c-0.213,0.209-0.476,0.32-0.776,0.32h-13.012C344.967,226.189,344.709,226.078,344.491,225.869z"
				/>
			<path fill="#458CAD" d="M405.631,182.634c3.053,3.024,4.583,7.135,4.583,12.323v30.131c0,0.306-0.112,0.563-0.326,0.781
				c-0.214,0.209-0.471,0.32-0.776,0.32h-13.008c-0.305,0-0.563-0.111-0.776-0.32c-0.218-0.219-0.315-0.476-0.315-0.781v-26.84
				c0-2.072-0.587-3.78-1.747-5.126c-1.16-1.34-2.655-2.014-4.485-2.014c-1.893,0-3.417,0.655-4.577,1.971
				c-1.161,1.314-1.748,3.038-1.748,5.169v26.84c0,0.306-0.107,0.563-0.32,0.781c-0.208,0.209-0.471,0.32-0.776,0.32h-13.007
				c-0.306,0-0.559-0.111-0.777-0.32c-0.213-0.219-0.32-0.476-0.32-0.781v-45.152c0-0.306,0.107-0.563,0.32-0.781
				c0.218-0.209,0.471-0.32,0.777-0.32h13.007c0.306,0,0.568,0.111,0.776,0.32c0.213,0.219,0.32,0.476,0.32,0.781v3.383
				c0,0.248,0.044,0.384,0.136,0.417c0.097,0.035,0.204-0.043,0.325-0.228c2.315-3.606,5.98-5.401,10.988-5.401
				C398.671,178.106,402.573,179.61,405.631,182.634z"/>
			<path d="M425.778,224.923c-2.825-1.17-4.995-2.723-6.518-4.674c-1.529-1.941-2.287-4.115-2.287-6.514v-1.174
				c0-0.646,0.321-0.972,0.971-0.972h4.669c0.65,0,0.976,0.325,0.976,0.972v0.781c0,2.14,1.122,4.003,3.354,5.597
				c2.242,1.592,5.047,2.382,8.421,2.382c3.372,0,6.096-0.762,8.173-2.286c2.073-1.523,3.111-3.455,3.111-5.79
				c0-1.62-0.534-2.951-1.602-3.989c-1.067-1.034-2.339-1.849-3.796-2.432c-1.461-0.583-3.718-1.329-6.766-2.242
				c-3.63-1.034-6.615-2.072-8.949-3.111c-2.335-1.034-4.301-2.479-5.888-4.33c-1.587-1.849-2.383-4.197-2.383-7.052
				c0-4.154,1.621-7.465,4.864-9.93c3.241-2.466,7.522-3.698,12.842-3.698c3.572,0,6.732,0.587,9.494,1.757
				c2.756,1.164,4.877,2.771,6.367,4.814c1.495,2.043,2.242,4.329,2.242,6.862v0.292c0,0.645-0.325,0.971-0.971,0.971h-4.576
				c-0.646,0-0.977-0.326-0.977-0.971v-0.292c0-2.208-1.053-4.057-3.159-5.552c-2.11-1.49-4.946-2.232-8.518-2.232
				c-3.306,0-5.966,0.66-7.979,1.989c-2.01,1.33-3.015,3.165-3.015,5.499c0,2.208,0.976,3.893,2.917,5.063
				c1.952,1.165,4.966,2.335,9.053,3.505c3.761,1.102,6.809,2.136,9.148,3.11c2.335,0.976,4.344,2.383,6.033,4.232
				c1.685,1.85,2.528,4.266,2.528,7.251c0,4.218-1.655,7.586-4.96,10.12c-3.31,2.528-7.688,3.796-13.139,3.796
				C431.825,226.676,428.604,226.093,425.778,224.923z"/>
			<path d="M472.828,223.365c-3.378-2.397-5.713-5.708-7.009-9.926c-0.912-2.984-1.364-6.975-1.364-11.969s0.452-8.955,1.364-11.872
				c1.232-4.149,3.533-7.426,6.907-9.828c3.372-2.397,7.459-3.602,12.265-3.602c4.602,0,8.576,1.204,11.92,3.602
				c3.339,2.402,5.621,5.645,6.858,9.731c0.907,2.791,1.363,6.78,1.363,11.969c0,5.257-0.456,9.246-1.363,11.969
				c-1.237,4.218-3.52,7.528-6.858,9.926c-3.344,2.397-7.348,3.602-12.018,3.602C480.221,226.967,476.196,225.763,472.828,223.365z
				 M492.873,218.356c2.204-1.718,3.693-4.038,4.475-6.961c0.583-2.334,0.874-5.61,0.874-9.828c0-4.28-0.262-7.557-0.776-9.828
				c-0.782-2.917-2.291-5.237-4.523-6.955c-2.242-1.718-4.95-2.577-8.125-2.577c-3.185,0-5.872,0.859-8.081,2.577
				s-3.693,4.038-4.475,6.955c-0.52,2.271-0.782,5.548-0.782,9.828c0,4.286,0.263,7.558,0.782,9.828
				c0.713,2.923,2.188,5.243,4.426,6.961s4.98,2.576,8.227,2.576C488.005,220.933,490.665,220.074,492.873,218.356z"/>
			<path d="M530.722,166.491c-1.297,1.592-1.941,4.296-1.941,8.125v1.941c0,0.263,0.126,0.393,0.388,0.393h10.896
				c0.645,0,0.976,0.325,0.976,0.976v4.379c0,0.649-0.331,0.97-0.976,0.97h-10.896c-0.262,0-0.388,0.131-0.388,0.389v41.551
				c0,0.651-0.331,0.976-0.976,0.976h-4.869c-0.645,0-0.97-0.324-0.97-0.976v-41.551c0-0.258-0.132-0.389-0.389-0.389h-6.522
				c-0.646,0-0.972-0.32-0.972-0.97v-4.379c0-0.65,0.325-0.976,0.972-0.976h6.522c0.257,0,0.389-0.13,0.389-0.393v-2.33
				c0-4.023,0.455-7.183,1.363-9.493c0.907-2.301,2.48-3.989,4.718-5.058c2.238-1.067,5.368-1.602,9.392-1.602h2.824
				c0.641,0,0.972,0.32,0.972,0.972v4.086c0,0.65-0.331,0.971-0.972,0.971h-2.241C534.453,164.104,532.021,164.899,530.722,166.491z
				"/>
			<path d="M574.315,182.692h-10.999c-0.257,0-0.387,0.126-0.387,0.388v28.704c0,3.116,0.698,5.305,2.097,6.572
				c1.388,1.262,3.581,1.893,6.562,1.893h2.436c0.651,0,0.972,0.33,0.972,0.976v3.989c0,0.651-0.32,0.976-0.972,0.976
				c-0.775,0.059-1.979,0.098-3.6,0.098c-4.67,0-8.208-0.879-10.611-2.632c-2.396-1.747-3.596-4.993-3.596-9.726v-30.85
				c0-0.262-0.131-0.388-0.394-0.388h-5.931c-0.65,0-0.971-0.325-0.971-0.976v-3.791c0-0.65,0.32-0.976,0.971-0.976h5.931
				c0.263,0,0.394-0.13,0.394-0.393v-11.284c0-0.646,0.325-0.976,0.976-0.976h4.766c0.646,0,0.972,0.329,0.972,0.976v11.284
				c0,0.263,0.13,0.393,0.387,0.393h10.999c0.65,0,0.971,0.325,0.971,0.976v3.791C575.286,182.367,574.966,182.692,574.315,182.692z
				"/>
			<path d="M597.768,225.408l-13.822-47.385l-0.098-0.296c0-0.521,0.325-0.777,0.976-0.777h5.062c0.583,0,0.938,0.292,1.068,0.879
				l10.314,38.334c0.063,0.135,0.15,0.193,0.248,0.193c0.096,0,0.174-0.059,0.242-0.193l10.502-38.334
				c0.137-0.587,0.49-0.879,1.078-0.879h4.669c0.582,0,0.937,0.257,1.067,0.777l10.61,38.338c0.058,0.135,0.155,0.194,0.291,0.194
				c0.126,0,0.224-0.06,0.291-0.194l10.604-38.236c0.132-0.587,0.491-0.879,1.073-0.879l5.058,0.098
				c0.325,0,0.567,0.097,0.729,0.291c0.164,0.194,0.213,0.451,0.145,0.781l-14.007,47.288c-0.194,0.52-0.554,0.781-1.072,0.781
				h-5.16c-0.514,0-0.873-0.262-1.067-0.781l-10.609-36.392c-0.063-0.131-0.146-0.194-0.242-0.194c-0.098,0-0.176,0.063-0.244,0.194
				l-10.313,36.392c-0.194,0.52-0.549,0.781-1.073,0.781h-5.251C598.315,226.189,597.962,225.928,597.768,225.408z"/>
			<path d="M688.262,180.645c3.18,2.989,4.771,6.945,4.771,11.871v32.698c0,0.651-0.33,0.976-0.976,0.976h-4.966
				c-0.646,0-0.971-0.324-0.971-0.976v-3.989c0-0.131-0.049-0.229-0.146-0.292c-0.097-0.063-0.213-0.033-0.34,0.098
				c-1.62,1.946-3.732,3.422-6.329,4.426c-2.591,1.005-5.479,1.511-8.658,1.511c-4.606,0-8.465-1.165-11.58-3.504
				c-3.111-2.336-4.67-5.902-4.67-10.703c0-4.868,1.767-8.712,5.305-11.532c3.533-2.819,8.451-4.231,14.74-4.231h11.29
				c0.257,0,0.388-0.132,0.388-0.394v-3.693c0-3.311-0.923-5.917-2.775-7.834c-1.846-1.912-4.718-2.868-8.61-2.868
				c-3.111,0-5.641,0.597-7.592,1.796c-1.941,1.203-3.145,2.873-3.596,5.014c-0.199,0.646-0.587,0.941-1.17,0.878l-5.251-0.684
				c-0.719-0.131-1.011-0.389-0.879-0.782c0.52-3.63,2.465-6.581,5.839-8.853c3.373-2.271,7.591-3.407,12.648-3.407
				C680.578,176.169,685.083,177.664,688.262,180.645z M681.938,218.162c2.785-1.912,4.184-4.494,4.184-7.736v-7.592
				c0-0.262-0.131-0.388-0.388-0.388h-10.217c-4.286,0-7.722,0.874-10.314,2.625c-2.597,1.753-3.893,4.185-3.893,7.296
				c0,2.858,0.99,5.014,2.966,6.475c1.976,1.456,4.558,2.188,7.737,2.188C675.841,221.03,679.146,220.074,681.938,218.162z"/>
			<path d="M732.827,177.728c0.519,0.263,0.713,0.685,0.587,1.266l-1.072,4.768c-0.194,0.649-0.617,0.844-1.268,0.582
				c-1.102-0.452-2.368-0.68-3.796-0.68l-1.261,0.098c-3.379,0.13-6.164,1.378-8.367,3.746c-2.209,2.369-3.311,5.368-3.311,8.999
				v28.708c0,0.651-0.325,0.976-0.971,0.976h-4.965c-0.65,0-0.976-0.324-0.976-0.976v-47.288c0-0.65,0.325-0.976,0.976-0.976h4.965
				c0.646,0,0.971,0.325,0.971,0.976v5.932c0,0.194,0.048,0.311,0.146,0.34c0.097,0.039,0.175-0.011,0.242-0.146
				c1.359-2.398,3.097-4.263,5.203-5.592c2.111-1.33,4.563-1.999,7.348-1.999C729.425,176.461,731.269,176.888,732.827,177.728z"/>
			<path d="M780.508,200.107v3.115c0,0.65-0.325,0.971-0.976,0.971h-31.427c-0.263,0-0.393,0.136-0.393,0.389
				c0.13,3.572,0.33,5.873,0.587,6.911c0.713,2.921,2.237,5.222,4.571,6.911c2.336,1.689,5.32,2.528,8.955,2.528
				c2.724,0,5.126-0.616,7.203-1.849c2.072-1.232,3.693-2.98,4.863-5.251c0.388-0.588,0.839-0.719,1.359-0.394l3.795,2.237
				c0.52,0.331,0.65,0.777,0.388,1.364c-1.62,3.11-4.052,5.562-7.294,7.344c-3.247,1.785-6.975,2.678-11.192,2.678
				c-4.606-0.066-8.465-1.164-11.576-3.31c-3.115-2.141-5.358-5.125-6.717-8.95c-1.165-3.115-1.753-7.59-1.753-13.43
				c0-2.723,0.05-4.945,0.146-6.663c0.102-1.719,0.344-3.263,0.732-4.621c1.098-4.222,3.32-7.591,6.664-10.124
				c3.34-2.528,7.378-3.796,12.114-3.796c5.902,0,10.444,1.495,13.624,4.476c3.174,2.989,5.154,7.203,5.936,12.653
				C780.377,195.117,780.508,197.385,780.508,200.107z M752.629,184.683c-2.111,1.66-3.489,3.883-4.135,6.669
				c-0.389,1.358-0.651,3.571-0.781,6.62c0,0.257,0.13,0.389,0.393,0.389h25.204c0.253,0,0.389-0.132,0.389-0.389
				c-0.136-2.923-0.33-4.999-0.583-6.232c-0.718-2.917-2.159-5.237-4.334-6.955c-2.174-1.718-4.916-2.577-8.222-2.577
				C757.38,182.207,754.735,183.032,752.629,184.683z"/>
		</g>
	</g>
	<g>
		<g>
			<path fill="#E4F5FD" d="M242.377,204.156l-3.582-3.446l25.796-26.787c13.847-14.381,13.415-37.342-0.961-51.189
				c-14.385-13.848-37.348-13.405-51.19,0.97l-4.96,5.51c-15.808,16.404-41.92,16.896-58.267,1.155
				c-16.352-15.745-16.842-41.862-1.102-58.218l25.797-26.787l3.582,3.446l-25.796,26.786c-13.842,14.382-13.411,37.349,0.966,51.19
				c14.371,13.842,37.333,13.411,51.185-0.962l4.961-5.508c15.802-16.41,41.919-16.905,58.271-1.165
				c16.352,15.749,16.842,41.867,1.097,58.218L242.377,204.156L242.377,204.156z"/>
		</g>
		<g>
			<path fill="#CEE1EA" d="M229.836,217.178l-3.582-3.445l25.797-26.787c13.847-14.381,13.415-37.343-0.961-51.19
				c-14.386-13.852-37.348-13.399-51.19,0.971l-4.96,5.51c-15.808,16.399-41.92,16.896-58.267,1.154
				c-16.351-15.744-16.841-41.861-1.101-58.218l25.796-26.786l3.582,3.444l-25.796,26.788c-13.842,14.381-13.41,37.347,0.966,51.19
				c14.372,13.848,37.333,13.41,51.185-0.962l4.96-5.509c15.803-16.409,41.92-16.905,58.272-1.165
				c16.351,15.75,16.841,41.867,1.097,58.219L229.836,217.178L229.836,217.178z"/>
		</g>
		<g>
			<path fill="#A6CCDF" d="M217.299,230.2l-3.582-3.446l25.797-26.786c13.847-14.381,13.41-37.343-0.966-51.19
				c-6.794-6.542-15.681-10.124-25.088-10.124c-0.232,0-0.465,0.004-0.703,0.01c-9.668,0.18-18.686,4.12-25.394,11.085l-4.96,5.508
				c-15.808,16.405-41.92,16.896-58.266,1.156c-16.352-15.75-16.847-41.867-1.102-58.218l25.796-26.788l3.582,3.446l-25.796,26.788
				c-13.847,14.381-13.41,37.343,0.966,51.189c14.371,13.847,37.338,13.41,51.186-0.961l4.96-5.509
				c7.683-7.984,17.939-12.459,28.937-12.667c11.027-0.133,21.409,3.877,29.33,11.502c16.352,15.75,16.847,41.866,1.102,58.219
				L217.299,230.2L217.299,230.2z"/>
		</g>
		<g>
			<path fill="#7FB3D4" d="M204.758,243.223l-3.582-3.446l25.796-26.787c13.847-14.381,13.41-37.343-0.966-51.186
				c-6.96-6.712-16.095-10.357-25.792-10.12c-9.668,0.181-18.686,4.122-25.394,11.086l-4.96,5.509
				c-15.808,16.401-41.92,16.896-58.267,1.156c-16.352-15.75-16.847-41.867-1.102-58.218l25.797-26.783l3.582,3.446l-25.796,26.782
				c-13.847,14.381-13.411,37.343,0.966,51.189c14.367,13.848,37.333,13.411,51.185-0.961l4.961-5.508
				c7.683-7.984,17.938-12.46,28.937-12.668c11.144-0.175,21.414,3.877,29.33,11.508c16.352,15.744,16.847,41.861,1.102,58.213
				L204.758,243.223L204.758,243.223z"/>
		</g>
		<g>
			<path fill="#63A9C7" d="M192.221,256.244l-3.582-3.446l25.791-26.786c13.847-14.381,13.416-37.344-0.96-51.186
				c-14.372-13.843-37.338-13.42-51.19,0.961l-4.955,5.509c-15.809,16.415-41.925,16.9-58.272,1.159
				c-16.346-15.749-16.841-41.865-1.101-58.218l25.796-26.781l3.582,3.446l-25.796,26.781c-13.842,14.381-13.406,37.344,0.966,51.19
				c14.381,13.848,37.343,13.415,51.185-0.961l4.956-5.509c15.817-16.415,41.93-16.91,58.276-1.16
				c16.352,15.745,16.842,41.856,1.097,58.214L192.221,256.244L192.221,256.244z"/>
		</g>
		<g>
			<path fill="#579ABD" d="M179.68,269.266l-3.582-3.446l25.797-26.786c13.847-14.381,13.41-37.343-0.966-51.185
				c-6.96-6.713-16.124-10.349-25.791-10.12c-9.668,0.18-18.687,4.116-25.394,11.08l-4.956,5.51
				c-15.808,16.409-41.925,16.9-58.271,1.159c-16.352-15.749-16.841-41.866-1.102-58.218l25.796-26.782l3.582,3.446l-25.796,26.782
				c-13.842,14.376-13.41,37.343,0.966,51.19c14.371,13.847,37.333,13.414,51.186-0.961l4.955-5.51
				c7.688-7.983,17.944-12.464,28.941-12.667c0.262-0.006,0.529-0.01,0.796-0.01c10.702,0,20.807,4.072,28.534,11.518
				c16.352,15.745,16.847,41.861,1.102,58.213L179.68,269.266L179.68,269.266z"/>
		</g>
		<g>
			<path fill="#458CAD" d="M167.143,282.288l-3.582-3.446l25.792-26.786c13.847-14.382,13.41-37.343-0.966-51.186
				c-14.367-13.842-37.333-13.42-51.186,0.961l-4.956,5.509c-15.808,16.414-41.924,16.899-58.271,1.16
				c-16.352-15.75-16.842-41.866-1.102-58.218L98.669,123.5l3.582,3.445l-25.796,26.782c-13.842,14.376-13.411,37.343,0.966,51.19
				c14.381,13.847,37.343,13.415,51.185-0.961l4.956-5.509c15.818-16.415,41.925-16.909,58.271-1.16
				c16.352,15.744,16.847,41.861,1.102,58.213L167.143,282.288L167.143,282.288z"/>
		</g>
	</g>
</g>
</svg>
